<svg width="14" height="15" viewBox="0 0 14 15" fill="none" xmlns="http://www.w3.org/2000/svg">
<path d="M6.26672 3.47052C6.50379 3.43547 6.74835 3.41667 7.00024 3.41667C9.97816 3.41667 11.9323 6.04449 12.5887 7.08398C12.6682 7.20979 12.7079 7.2727 12.7302 7.36973C12.7469 7.44259 12.7468 7.55755 12.7301 7.63042C12.7079 7.72744 12.6679 7.79077 12.5879 7.91741C12.413 8.19425 12.1463 8.58331 11.793 9.00527M3.92252 4.4171C2.66131 5.27266 1.8051 6.4613 1.41231 7.08308C1.3325 7.20942 1.29259 7.2726 1.27035 7.36961C1.25364 7.44248 1.25363 7.55742 1.27033 7.63029C1.29257 7.72731 1.33229 7.79022 1.41174 7.91602C2.06823 8.95551 4.02232 11.5833 7.00024 11.5833C8.20098 11.5833 9.23526 11.1561 10.0851 10.578M1.75024 2.25L12.2502 12.75M5.76281 6.26256C5.44612 6.57925 5.25024 7.01675 5.25024 7.5C5.25024 8.4665 6.03374 9.25 7.00024 9.25C7.48349 9.25 7.92099 9.05412 8.23768 8.73744" stroke="#343D48" stroke-linecap="round" stroke-linejoin="round"/>
</svg>
